<?xml-stylesheet href="../css/svg.css" type="text/css"?>
<svg xmlns="http://www.w3.org/2000/svg" width="830" height="850" style="isolation:isolate" viewBox="14 18 600 500">
  <defs>
    <clipPath id="a">
      <path d="M0 0h700v600H0z"/>
    </clipPath>
  </defs>
  <g clip-path="url(#a)">
    <text fill="#191818" font-family="Nunito" font-size="24" font-weight="400" transform="translate(260 483)">
      Come Say Hello!
    </text>
    <text fill="#151414" font-family="Nunito" font-size="20" font-weight="400" transform="translate(204 39)">
      Devvit.io is an open source community
    </text>
    <g fill="#151414" font-family="Nunito" font-size="14" font-weight="400">
      <text transform="translate(13 123)">
        We don&apos;t have an office, everything we collaborate on is done
      </text>
      <text transform="translate(13 143)">
        remotely
      </text>
    </g>
    <text fill="#151414" font-family="Nunito" font-size="14" font-weight="400" transform="translate(368 252)">
      We&apos;re a friendly bunch, getting involved is easy.
    </text>
    <g fill="#151414" font-family="Nunito" font-size="14" font-weight="400">
      <text transform="translate(27 352)">
        Don&apos;t want to contribute to our projects, but want the community part?
      </text>
      <text transform="translate(225 409)">
        That&apos;s no problem, there&apos;s no minimum contribution requirement.
      </text>
    </g>
    <path fill="none" stroke="#000" stroke-linecap="square" stroke-miterlimit="3" d="M334 19h44c2 0 3 1 3 3v23c0 2-1 3-3 3h-44c-1 0-2-1-2-3V22c0-2 1-3 2-3z"/>
    <path fill="none" stroke="#000" stroke-linecap="square" stroke-miterlimit="3" d="M338 53c-20 27-141 29-146 55M188 132c-15 71 300 47 353 97M578 264c38 19-42 36-163 20-165-18-230-26-194 41M384 392c-15-22-94-11-134-31" vector-effect="non-scaling-stroke"/>
    <path stroke="#000" stroke-linecap="square" stroke-miterlimit="3" d="M271 496h162M282 502h139M293 509h115M310 516h80M320 522h62" vector-effect="non-scaling-stroke"/>
  </g>
</svg>
